<svg width="251" height="407" viewBox="0 0 251 407" fill="none" xmlns="http://www.w3.org/2000/svg">
<g clip-path="url(#clip0_422_2421)">
<path d="M76.1704 77.5325C74.8653 82.7107 70.6127 93.123 70.5754 98.4931L70.8693 98.1135C71.667 99.1306 72.5456 100.082 73.4965 100.957C74.7513 99.2224 76.354 97.7675 78.2024 96.6855C77.4309 99.0246 77.1357 101.494 77.3344 103.949C80.3302 110.244 89.6427 105.994 95.2349 104.503C101.8 110.226 109.591 110.894 118.982 105.815C121.789 105.724 124.912 105.476 126.63 103.577C128.347 101.679 119.413 91.9726 120.145 89.5411C125.361 72.2213 125.066 74.1051 118.231 67.5015C116.726 66.0483 116.401 63.6189 114.629 62.2782C112.17 60.42 108.76 60.209 105.627 60.0945C106.427 60.0284 107.198 59.7573 107.863 59.3075C108.529 58.8576 109.068 58.2441 109.427 57.526C109.731 56.8105 109.831 56.0249 109.717 55.2561C109.602 54.4873 109.277 53.765 108.778 53.169C107.437 51.504 105.018 50.7584 102.788 50.7931C100.605 50.9401 98.4587 51.4217 96.4231 52.221C95.0836 52.5855 93.8202 53.1868 92.6928 53.9963C92.1611 54.3798 91.7592 54.9164 91.5409 55.5343C91.3226 56.1521 91.2982 56.8219 91.4711 57.454C91.7348 58.0236 92.1239 58.5263 92.6092 58.9247C93.0945 59.3231 93.6635 59.6068 94.2738 59.7548C95.2082 60.0081 96.1722 60.136 97.1404 60.1354C92.6967 60.1623 88.3665 61.5407 84.7259 64.0871C80.1757 67.3684 77.4826 72.356 76.1704 77.5325Z" fill="#0F172A"/>
<path d="M121.305 88.06C123.588 78.5631 117.734 69.0148 108.23 66.7332C98.7263 64.4516 89.1707 70.3007 86.8874 79.7976C84.6041 89.2945 90.4577 98.8429 99.9617 101.124C109.466 103.406 119.021 97.5569 121.305 88.06Z" fill="#FFB6B6"/>
<path d="M92.282 76.8252C93.7166 79.7578 96.7569 80.3526 99.5266 80.6049C100.4 80.6871 101.277 80.7551 102.16 80.8019C102.423 80.3624 102.707 79.9281 103.01 79.5131C104.265 77.7781 105.867 76.3233 107.716 75.2413C107.104 77.0892 106.794 79.0234 106.796 80.9698C108.452 80.9846 110.111 80.9552 111.773 80.8815C113.202 80.9883 114.617 80.5423 115.727 79.6358C116.836 78.7293 117.555 77.4316 117.734 76.0108C119.56 78.2498 121.64 80.3096 124.189 80.9514C127.164 81.5845 122.457 80.2064 123.94 77.5527C125.147 75.5918 125.631 73.1122 125.899 70.7461C126.215 67.9336 126.17 64.7493 124.589 63.2069C123.32 61.9571 118.323 65.9579 116.623 66.315C112.874 67.1202 120.097 64.5356 116.591 66.0887L116.376 66.8249C116.491 62.974 114.638 59.5356 111.945 58.5891C110.129 57.9582 108.106 58.3802 106.145 58.8246C103.61 59.2847 101.157 60.1138 98.8635 61.2854C96.2451 62.7227 94.1351 64.9333 92.8221 67.6148C91.4237 70.5274 91.0441 74.2924 92.282 76.8252Z" fill="#0F172A"/>
<path d="M108.715 57.0505C108.535 57.0229 108.992 57.0276 108.838 57.0529C108.914 57.0379 108.989 57.0167 109.063 56.9896C109.075 56.9853 109.242 56.9059 109.132 56.9626C109.382 56.8494 109.593 56.6663 109.741 56.4354C110.084 55.8705 110.329 55.2518 110.466 54.6055C110.634 53.7531 110.98 52.9459 111.483 52.2368C111.627 52.0467 111.813 51.8932 112.028 51.7888C112.243 51.6844 112.479 51.632 112.717 51.6359C112.956 51.6398 113.19 51.6999 113.401 51.8113C113.612 51.9226 113.794 52.0821 113.932 52.2768C114.376 52.9854 114.191 53.9579 114.048 54.7325C113.901 55.5371 113.626 56.3127 113.232 57.0296C112.568 58.2045 111.577 59.1612 110.379 59.783C108.993 60.5101 107.41 60.7714 105.864 60.5282C105.657 60.4735 105.47 60.3598 105.326 60.2008C105.182 60.0418 105.088 59.8444 105.054 59.6328C105.021 59.4211 105.049 59.2043 105.137 59.0088C105.225 58.8132 105.367 58.6473 105.548 58.5313L107.887 57.1813C108.01 57.1063 108.146 57.0561 108.288 57.0336C108.43 57.0112 108.575 57.0169 108.715 57.0504C108.855 57.084 108.987 57.1448 109.103 57.2292C109.22 57.3137 109.318 57.4203 109.393 57.5428C109.468 57.6653 109.519 57.8014 109.541 57.9434C109.563 58.0853 109.558 58.2302 109.524 58.37C109.491 58.5097 109.43 58.6414 109.345 58.7577C109.261 58.8739 109.154 58.9723 109.031 59.0474L106.692 60.3973L106.375 58.4004C106.697 58.4476 107.022 58.4587 107.346 58.4336C107.693 58.4214 108.037 58.3598 108.367 58.2508C108.686 58.1642 108.994 58.0433 109.286 57.89C109.473 57.7914 109.656 57.6833 109.832 57.5663C109.896 57.5237 109.959 57.48 110.021 57.4351C110.017 57.4383 110.282 57.2314 110.167 57.3274C110.459 57.0792 110.728 56.8043 110.97 56.5063C111.055 56.4007 111.131 56.2883 111.198 56.1702C111.316 55.9778 111.422 55.7786 111.516 55.5738C111.706 55.1414 111.841 54.6871 111.918 54.2213C111.956 54.0249 111.983 53.8266 112 53.6274C111.997 53.5196 112.002 53.4118 112.014 53.3047C112.073 53.0455 112.017 53.4511 112.137 53.5436L112.639 53.8179C112.729 53.8318 112.82 53.8254 112.906 53.7993C112.993 53.7731 113.072 53.7279 113.139 53.6669C113.182 53.5834 113.172 53.5977 113.108 53.7095C113.034 53.8411 112.968 53.9772 112.911 54.1171C112.789 54.4447 112.684 54.7783 112.595 55.1166C112.416 55.8351 112.159 56.5323 111.831 57.1964C111.512 57.8663 110.99 58.4186 110.339 58.7744C109.687 59.1303 108.94 59.2716 108.204 59.1782C107.923 59.1084 107.68 58.9309 107.529 58.684C107.377 58.4372 107.329 58.1407 107.395 57.8587C107.468 57.5797 107.646 57.3397 107.892 57.189C108.138 57.0383 108.433 56.9887 108.715 57.0505V57.0505Z" fill="#0F172A"/>
<path d="M102.243 390.796L110.364 390.796L114.227 359.496H102.241L102.243 390.796Z" fill="#FFB6B6"/>
<path d="M113.066 391.527V386.025L110.931 386.156L102.241 386.67L100.229 386.794L98.6917 405.218L98.6094 406.206H104.376L104.561 405.225L105.398 400.766L107.561 405.225L108.034 406.206H123.322C124.231 406.2 125.102 405.836 125.745 405.192C126.387 404.549 126.75 403.678 126.754 402.769C127.399 399.758 114.686 393.248 113.066 391.527Z" fill="#0F172A"/>
<path d="M11.8331 381.017L18.5195 385.622L39.4774 362.042L29.6087 355.246L11.8331 381.017Z" fill="#FFB6B6"/>
<path d="M20.3294 387.756L23.4539 383.227L21.6221 382.123L14.1746 377.619L12.4484 376.58L0.718193 390.877L0.0893555 391.644L4.83696 394.914L5.54669 394.211L8.76847 391.015L8.01657 395.913L7.84945 396.989L20.4363 405.658C21.1886 406.17 22.1123 406.364 23.0069 406.198C23.9014 406.033 24.6946 405.522 25.2141 404.775C27.4557 402.662 20.6854 390.093 20.3294 387.756Z" fill="#0F172A"/>
<path d="M214.08 72.5794C213.452 73.9435 212.316 75.0091 210.915 75.5495C209.513 76.0899 207.955 76.0623 206.574 75.4727C206.295 75.3485 206.026 75.2014 205.772 75.0329L170.91 101.424L159.956 92.1572L204.517 66.9439C205.298 65.9427 206.389 65.2279 207.619 64.9112C208.849 64.5945 210.149 64.6937 211.317 65.1932C212.654 65.7801 213.702 66.8735 214.232 68.2329C214.762 69.5922 214.73 71.1062 214.142 72.4418C214.122 72.488 214.101 72.5338 214.08 72.5794Z" fill="#FFB6B6"/>
<path d="M111.703 146.702C111.703 146.702 99.3828 143.56 108.013 127.393C116.644 111.227 149.838 93.1984 152.136 92.9739C154.434 92.7494 152.57 94.937 156.55 91.3312C159.787 88.3985 161.112 91.1918 161.232 89.7658C161.549 86.0056 166.456 92.4099 165.805 87.7906C165.153 83.1714 176.24 98.0294 176.24 98.0294C176.24 98.0294 176.237 100.783 170.414 103.018C167.143 104.273 164.861 103.209 164.938 106.021C165.015 108.833 158.306 107.781 157.437 108.396C156.568 109.011 141.897 128.544 141.897 128.544L111.703 146.702Z" fill="#38BDF8"/>
<path d="M228.232 128.239C213.171 124.493 200.241 117.129 190.133 104.974C189.362 104.502 188.81 103.744 188.598 102.867C188.386 101.989 188.531 101.063 189.002 100.292L206.585 71.5402C207.057 70.7702 207.815 70.2187 208.694 70.0068C209.572 69.7949 210.499 69.9399 211.271 70.4099L249.37 93.6746C250.14 94.1463 250.692 94.9042 250.904 95.782C251.116 96.6598 250.971 97.5859 250.501 98.3569L232.918 127.108C232.445 127.878 231.687 128.43 230.808 128.642C229.93 128.854 229.003 128.709 228.232 128.239Z" fill="#E6E6E6"/>
<path d="M218.073 119.006C210.143 118.141 201.902 111.808 193.579 104.05C192.858 103.608 192.341 102.898 192.142 102.076C191.944 101.254 192.08 100.387 192.52 99.6646L207.631 74.9551C208.073 74.2339 208.784 73.7174 209.607 73.5189C210.429 73.3205 211.297 73.4562 212.02 73.8964L245.923 94.5988C246.644 95.0406 247.161 95.7504 247.36 96.5726C247.558 97.3947 247.423 98.262 246.982 98.9841L237.621 114.291C235.652 117.503 232.487 119.804 228.823 120.688C225.158 121.572 221.292 120.967 218.073 119.006V119.006Z" fill="white"/>
<path d="M232.406 94.1295C232.75 92.7726 231.446 91.2719 229.494 90.7776C227.542 90.2833 225.681 90.9826 225.337 92.3395C224.993 93.6964 226.296 95.1971 228.248 95.6914C230.2 96.1857 232.061 95.4864 232.406 94.1295Z" fill="white"/>
<path d="M208.568 93.976C208.912 92.6191 207.609 91.1184 205.657 90.6241C203.705 90.1298 201.843 90.829 201.499 92.1859C201.155 93.5428 202.458 95.0435 204.41 95.5379C206.362 96.0322 208.224 95.3329 208.568 93.976Z" fill="#0F172A"/>
<path d="M236.879 113.892C237.223 112.535 235.92 111.034 233.968 110.54C232.016 110.045 230.154 110.745 229.81 112.102C229.466 113.459 230.769 114.959 232.721 115.454C234.673 115.948 236.535 115.249 236.879 113.892Z" fill="#FF6584"/>
<path d="M242.436 121.344C242.577 120.08 241.978 118.975 241.098 118.877C240.219 118.779 239.391 119.724 239.249 120.988C239.108 122.252 239.707 123.356 240.587 123.454C241.467 123.552 242.294 122.607 242.436 121.344Z" fill="#E6E6E6"/>
<path d="M244.396 136.27C244.537 135.006 243.938 133.902 243.059 133.804C242.179 133.705 241.351 134.65 241.21 135.914C241.068 137.178 241.667 138.282 242.547 138.381C243.427 138.479 244.254 137.534 244.396 136.27Z" fill="#0F172A"/>
<path d="M220.025 107.824C220.166 106.561 219.568 105.456 218.688 105.358C217.808 105.26 216.98 106.205 216.839 107.469C216.698 108.733 217.296 109.837 218.176 109.935C219.056 110.033 219.884 109.088 220.025 107.824Z" fill="#E6E6E6"/>
<path d="M232.021 103.321C232.163 102.057 231.564 100.953 230.684 100.855C229.804 100.757 228.976 101.702 228.835 102.965C228.694 104.229 229.293 105.333 230.172 105.432C231.052 105.53 231.88 104.585 232.021 103.321Z" fill="#FF6584"/>
<path d="M217.243 91.1545C217.384 89.8907 216.785 88.7865 215.905 88.6882C215.025 88.59 214.198 89.5349 214.056 90.7987C213.915 92.0626 214.514 93.1668 215.394 93.265C216.273 93.3632 217.101 92.4183 217.243 91.1545Z" fill="#0F172A"/>
<path d="M142.464 214.4L142.673 212.205L133.64 187.46L95.1471 194.877C95.1471 194.877 75.3081 219.298 79.7198 235.462C80.9163 239.846 65.8622 268.961 70.8167 265.821C75.7712 262.681 65.6637 271.421 68.2522 271.626C70.8407 271.83 66.7757 274.878 66.0058 276.539C48.2745 314.807 19.9171 364.774 19.9171 364.774C19.9171 364.774 25.8147 381.341 35.1206 372.078C44.4264 362.815 106.68 280.525 106.68 280.525C106.68 280.525 105.841 285.883 104.671 294.028C101.057 319.193 95.3789 369.854 100.423 372.476C104.451 374.56 108.96 375.536 113.489 375.304C113.489 375.304 146.875 298.159 142.464 283.464" fill="#0F172A"/>
<path d="M119.703 111.193L116.121 103.752L96.7107 106.102L94.7037 112.173C89.0787 117.788 84.4453 124.314 80.9997 131.475C75.6289 142.94 93.5036 193.583 90.5624 196.522C87.6213 199.461 76.7238 201.044 81.6257 204.644C86.5275 208.245 81.6257 205.942 80.4041 210.05C79.1825 214.157 76.7772 230.506 76.7772 230.506C76.7772 230.506 95.439 246.138 107.203 222.627C124.36 224.096 127.791 207.932 127.791 207.932L133.559 198.387C141.043 194.964 129.507 155.767 132.448 147.93C135.389 140.093 119.703 111.193 119.703 111.193Z" fill="#38BDF8"/>
<path d="M137.442 195.102C137.486 192.223 137.478 189.123 138.757 186.471C139.718 184.478 141.501 182.488 143.851 182.322C145.849 182.18 148.118 183.361 148.301 185.531C148.52 188.111 146.346 190.575 144.586 192.204C142.459 194.156 139.87 195.534 137.063 196.209C136.866 196.268 136.691 196.383 136.558 196.54C136.424 196.697 136.34 196.888 136.313 197.092C136.286 197.296 136.319 197.503 136.407 197.689C136.496 197.874 136.636 198.03 136.811 198.138C139.046 199.374 141.022 201.029 142.63 203.012C144.114 204.845 145.65 207.265 145.963 209.65C146.097 210.666 145.916 211.901 144.84 212.326C143.817 212.729 142.573 212.204 141.696 211.684C139.632 210.312 138.015 208.367 137.043 206.088C135.845 203.506 135.441 200.627 135.883 197.816C136.101 196.486 134.066 195.914 133.846 197.254C132.878 203.157 135.235 210.186 140.52 213.44C142.925 214.921 146.593 215.181 147.801 212.056C148.894 209.226 147.084 205.824 145.572 203.496C143.632 200.51 140.99 198.045 137.877 196.315L137.625 198.245C140.693 197.491 143.528 195.992 145.878 193.881C148.127 191.863 150.548 188.868 150.423 185.67C150.311 182.795 148.013 180.711 145.258 180.291C142.262 179.834 139.589 181.464 137.872 183.829C135.518 187.073 135.388 191.251 135.329 195.102C135.338 195.375 135.454 195.635 135.651 195.825C135.848 196.015 136.111 196.121 136.385 196.121C136.659 196.121 136.923 196.015 137.12 195.825C137.317 195.635 137.432 195.375 137.442 195.102L137.442 195.102Z" fill="#0F172A"/>
<path d="M51.6294 235.419C52.9619 234.725 53.971 233.54 54.4418 232.114C54.9127 230.688 54.8082 229.135 54.1506 227.785C54.0126 227.513 53.8523 227.252 53.6713 227.006L78.3281 190.909L68.5239 180.435L45.5241 226.154C44.5619 226.983 43.9014 228.107 43.6457 229.35C43.3899 230.593 43.5533 231.886 44.1102 233.027C44.4334 233.673 44.8808 234.25 45.4268 234.723C45.9728 235.196 46.6068 235.558 47.2925 235.786C47.9783 236.015 48.7024 236.106 49.4234 236.055C50.1445 236.004 50.8484 235.811 51.4951 235.489C51.5402 235.466 51.585 235.443 51.6294 235.419Z" fill="#FFB6B6"/>
<path d="M120.659 129.582C120.659 129.582 116.91 117.442 101.177 126.854C85.4444 136.266 69.0647 170.286 68.9538 172.59C68.843 174.894 70.9375 172.926 67.53 177.076C64.7586 180.452 67.6161 181.636 66.1967 181.827C62.4539 182.329 69.0976 186.91 64.4484 186.488C59.7991 186.066 75.1979 196.397 75.1979 196.397C75.1979 196.397 77.9504 196.258 79.8959 190.336C80.9886 187.009 79.8133 184.785 82.6273 184.722C85.4414 184.66 84.0587 178.017 84.6303 177.119C85.2018 176.221 104.002 160.614 104.002 160.614L120.659 129.582Z" fill="#38BDF8"/>
<path d="M96.0364 69.6864C107.605 56.3552 87.0407 91.6525 102.403 105.413C96.1419 110.377 73.1756 108.616 74.4733 105.413C75.7711 102.21 80.0249 71.6502 84.5893 69.6864C89.1537 67.7226 96.0364 69.6864 96.0364 69.6864Z" fill="#0F172A"/>
<path d="M80.2661 237.005C80.6102 235.648 79.3068 234.147 77.3548 233.653C75.4028 233.159 73.5414 233.858 73.1973 235.215C72.8531 236.572 74.1566 238.072 76.1086 238.567C78.0606 239.061 79.922 238.362 80.2661 237.005Z" fill="white"/>
<path d="M56.4284 236.851C56.7725 235.494 55.4691 233.994 53.5171 233.499C51.5651 233.005 49.7037 233.704 49.3596 235.061C49.0154 236.418 50.3189 237.919 52.2709 238.413C54.2229 238.907 56.0842 238.208 56.4284 236.851Z" fill="#0F172A"/>
<path d="M84.7394 256.767C85.0836 255.41 83.7801 253.909 81.8281 253.415C79.8761 252.921 78.0147 253.62 77.6706 254.977C77.3265 256.334 78.6299 257.835 80.5819 258.329C82.5339 258.823 84.3953 258.124 84.7394 256.767Z" fill="#FF6584"/>
<path d="M90.2962 264.219C90.4375 262.955 89.8388 261.851 88.959 261.753C88.0791 261.654 87.2513 262.599 87.11 263.863C86.9686 265.127 87.5674 266.231 88.4472 266.329C89.3271 266.428 90.1549 265.483 90.2962 264.219Z" fill="#E6E6E6"/>
<path d="M92.2564 279.145C92.3977 277.882 91.799 276.777 90.9192 276.679C90.0393 276.581 89.2115 277.526 89.0702 278.79C88.9288 280.053 89.5275 281.158 90.4074 281.256C91.2872 281.354 92.1151 280.409 92.2564 279.145Z" fill="#0F172A"/>
<path d="M67.8857 250.7C68.027 249.436 67.4283 248.332 66.5485 248.234C65.6686 248.135 64.8408 249.08 64.6994 250.344C64.5581 251.608 65.1568 252.712 66.0367 252.81C66.9165 252.909 67.7444 251.964 67.8857 250.7Z" fill="#E6E6E6"/>
<path d="M79.882 246.196C80.0233 244.933 79.4246 243.828 78.5448 243.73C77.6649 243.632 76.8371 244.577 76.6957 245.841C76.5544 247.105 77.1531 248.209 78.033 248.307C78.9128 248.405 79.7407 247.46 79.882 246.196Z" fill="#FF6584"/>
<path d="M65.1031 234.03C65.2444 232.766 64.6457 231.662 63.7659 231.564C62.886 231.465 62.0582 232.41 61.9168 233.674C61.7755 234.938 62.3742 236.042 63.2541 236.14C64.1339 236.239 64.9618 235.294 65.1031 234.03Z" fill="#0F172A"/>
<path d="M220.432 201.814C220.776 200.457 219.472 198.956 217.52 198.462C215.568 197.968 213.707 198.667 213.363 200.024C213.019 201.381 214.322 202.881 216.274 203.376C218.226 203.87 220.087 203.171 220.432 201.814Z" fill="white"/>
<path d="M196.594 201.66C196.938 200.303 195.635 198.803 193.683 198.308C191.731 197.814 189.869 198.513 189.525 199.87C189.181 201.227 190.484 202.728 192.436 203.222C194.388 203.717 196.25 203.017 196.594 201.66Z" fill="#0F172A"/>
<path d="M224.905 221.576C225.249 220.219 223.946 218.718 221.994 218.224C220.042 217.73 218.18 218.429 217.836 219.786C217.492 221.143 218.795 222.644 220.747 223.138C222.699 223.632 224.561 222.933 224.905 221.576Z" fill="#FF6584"/>
<path d="M230.462 229.028C230.603 227.764 230.004 226.66 229.125 226.562C228.245 226.463 227.417 227.408 227.275 228.672C227.134 229.936 227.733 231.04 228.613 231.138C229.493 231.237 230.32 230.292 230.462 229.028Z" fill="#E6E6E6"/>
<path d="M232.422 243.954C232.563 242.691 231.965 241.586 231.085 241.488C230.205 241.39 229.377 242.335 229.236 243.599C229.094 244.862 229.693 245.967 230.573 246.065C231.453 246.163 232.281 245.218 232.422 243.954Z" fill="#0F172A"/>
<path d="M208.051 215.509C208.193 214.245 207.594 213.141 206.714 213.043C205.834 212.944 205.006 213.889 204.865 215.153C204.724 216.417 205.322 217.521 206.202 217.619C207.082 217.718 207.91 216.773 208.051 215.509Z" fill="#E6E6E6"/>
<path d="M220.047 211.005C220.189 209.742 219.59 208.637 218.71 208.539C217.83 208.441 217.003 209.386 216.861 210.65C216.72 211.914 217.319 213.018 218.198 213.116C219.078 213.214 219.906 212.269 220.047 211.005Z" fill="#FF6584"/>
<path d="M205.269 198.839C205.41 197.575 204.811 196.471 203.931 196.373C203.052 196.274 202.224 197.219 202.082 198.483C201.941 199.747 202.54 200.851 203.42 200.949C204.299 201.048 205.127 200.103 205.269 198.839Z" fill="#0F172A"/>
<path d="M30.9617 96.241C31.3058 94.8841 30.0023 93.3834 28.0503 92.8891C26.0983 92.3948 24.2369 93.094 23.8928 94.4509C23.5487 95.8078 24.8521 97.3085 26.8041 97.8028C28.7561 98.2971 30.6175 97.5979 30.9617 96.241Z" fill="white"/>
<path d="M7.12393 96.0874C7.46806 94.7305 6.16462 93.2298 4.21262 92.7355C2.26062 92.2412 0.39924 92.9405 0.0551113 94.2974C-0.289017 95.6543 1.01441 97.155 2.96642 97.6493C4.91842 98.1436 6.7798 97.4443 7.12393 96.0874Z" fill="#0F172A"/>
<path d="M35.435 116.003C35.7791 114.646 34.4756 113.146 32.5236 112.651C30.5716 112.157 28.7103 112.856 28.3661 114.213C28.022 115.57 29.3254 117.071 31.2774 117.565C33.2294 118.059 35.0908 117.36 35.435 116.003Z" fill="#FF6584"/>
<path d="M40.9918 123.455C41.1331 122.191 40.5344 121.087 39.6546 120.989C38.7747 120.89 37.9469 121.835 37.8055 123.099C37.6642 124.363 38.2629 125.467 39.1428 125.565C40.0226 125.664 40.8505 124.719 40.9918 123.455Z" fill="#E6E6E6"/>
<path d="M42.952 138.381C43.0933 137.118 42.4946 136.013 41.6147 135.915C40.7349 135.817 39.907 136.762 39.7657 138.026C39.6244 139.29 40.2231 140.394 41.1029 140.492C41.9828 140.59 42.8106 139.645 42.952 138.381Z" fill="#0F172A"/>
<path d="M18.5813 109.936C18.7226 108.672 18.1239 107.568 17.244 107.47C16.3642 107.371 15.5363 108.316 15.395 109.58C15.2537 110.844 15.8524 111.948 16.7323 112.046C17.6121 112.145 18.4399 111.2 18.5813 109.936Z" fill="#E6E6E6"/>
<path d="M30.5775 105.433C30.7189 104.169 30.1202 103.065 29.2403 102.966C28.3605 102.868 27.5326 103.813 27.3913 105.077C27.25 106.341 27.8487 107.445 28.7285 107.543C29.6084 107.641 30.4362 106.696 30.5775 105.433Z" fill="#FF6584"/>
<path d="M15.7987 93.266C15.94 92.0021 15.3413 90.898 14.4614 90.7997C13.5816 90.7015 12.7537 91.6464 12.6124 92.9102C12.4711 94.174 13.0698 95.2782 13.9496 95.3765C14.8295 95.4747 15.6573 94.5298 15.7987 93.266Z" fill="#0F172A"/>
<path d="M142.953 5.44827C143.297 4.09137 141.994 2.59067 140.042 2.09636C138.09 1.60205 136.228 2.30131 135.884 3.65821C135.54 5.01512 136.844 6.51581 138.796 7.01012C140.748 7.50443 142.609 6.80517 142.953 5.44827Z" fill="white"/>
<path d="M119.115 5.29473C119.46 3.93783 118.156 2.43713 116.204 1.94282C114.252 1.44851 112.391 2.14778 112.047 3.50468C111.702 4.86158 113.006 6.36228 114.958 6.85659C116.91 7.3509 118.771 6.65163 119.115 5.29473Z" fill="#0F172A"/>
<path d="M147.427 25.2104C147.771 23.8535 146.467 22.3528 144.515 21.8585C142.563 21.3642 140.702 22.0635 140.358 23.4204C140.014 24.7773 141.317 26.278 143.269 26.7723C145.221 27.2666 147.082 26.5673 147.427 25.2104Z" fill="#FF6584"/>
<path d="M152.983 32.6622C153.125 31.3984 152.526 30.2942 151.646 30.196C150.766 30.0977 149.938 31.0426 149.797 32.3065C149.656 33.5703 150.254 34.6745 151.134 34.7727C152.014 34.871 152.842 33.9261 152.983 32.6622Z" fill="#E6E6E6"/>
<path d="M154.943 47.5887C155.085 46.3249 154.486 45.2207 153.606 45.1224C152.726 45.0242 151.899 45.9691 151.757 47.2329C151.616 48.4968 152.215 49.601 153.094 49.6992C153.974 49.7975 154.802 48.8525 154.943 47.5887Z" fill="#0F172A"/>
<path d="M130.573 19.1432C130.714 17.8794 130.115 16.7752 129.236 16.677C128.356 16.5787 127.528 17.5236 127.387 18.7875C127.245 20.0513 127.844 21.1555 128.724 21.2537C129.604 21.352 130.431 20.4071 130.573 19.1432Z" fill="#E6E6E6"/>
<path d="M142.569 14.6399C142.71 13.376 142.112 12.2718 141.232 12.1736C140.352 12.0754 139.524 13.0203 139.383 14.2841C139.241 15.5479 139.84 16.6521 140.72 16.7504C141.6 16.8486 142.428 15.9037 142.569 14.6399Z" fill="#FF6584"/>
<path d="M127.79 2.47326C127.932 1.20942 127.333 0.105243 126.453 0.0070037C125.573 -0.0912358 124.745 0.853666 124.604 2.1175C124.463 3.38134 125.061 4.48552 125.941 4.58376C126.821 4.682 127.649 3.7371 127.79 2.47326Z" fill="#0F172A"/>
<path d="M172.879 394.801C173.207 394.816 173.531 394.73 173.808 394.555C174.085 394.38 174.301 394.124 174.427 393.821C174.554 393.519 174.584 393.186 174.515 392.866C174.445 392.546 174.278 392.255 174.038 392.032L173.928 391.597C173.943 391.562 173.957 391.528 173.972 391.493C174.302 390.714 174.854 390.051 175.56 389.585C176.266 389.12 177.094 388.873 177.94 388.876C178.786 388.879 179.613 389.132 180.315 389.603C181.018 390.074 181.566 390.741 181.89 391.522C183.185 394.639 184.833 397.761 185.239 401.056C185.418 402.513 185.343 403.989 185.016 405.42C188.058 398.79 189.637 391.584 189.648 384.291C189.648 382.461 189.546 380.632 189.343 378.813C189.174 377.322 188.941 375.842 188.642 374.372C187.012 366.397 183.512 358.922 178.429 352.561C175.969 351.219 173.98 349.157 172.729 346.651C172.276 345.75 171.955 344.789 171.778 343.796C172.055 343.833 172.824 339.61 172.615 339.35C173.002 338.764 173.694 338.473 174.116 337.9C176.217 335.054 179.111 335.551 180.622 339.419C183.849 341.046 183.881 343.746 181.9 346.342C180.64 347.994 180.467 350.229 179.362 351.997C179.475 352.142 179.594 352.283 179.707 352.429C181.786 355.1 183.598 357.969 185.117 360.993C184.748 357.605 185.189 354.177 186.404 350.992C187.635 348.024 189.943 345.524 191.976 342.958C192.513 342.269 193.243 341.754 194.073 341.48C194.904 341.205 195.797 341.182 196.64 341.414C197.483 341.647 198.238 342.123 198.81 342.784C199.382 343.446 199.745 344.261 199.853 345.128C199.857 345.166 199.861 345.204 199.865 345.242C199.563 345.412 199.268 345.593 198.979 345.784C198.616 346.026 198.334 346.373 198.171 346.778C198.009 347.183 197.972 347.628 198.066 348.054C198.161 348.48 198.382 348.868 198.701 349.166C199.02 349.465 199.421 349.66 199.853 349.726L199.897 349.733C199.79 350.82 199.6 351.898 199.328 352.956C201.936 363.032 196.307 366.702 188.269 366.867C188.092 366.958 187.919 367.048 187.741 367.135C189.268 371.457 190.225 375.958 190.589 380.527C190.796 383.222 190.783 385.93 190.553 388.623L190.567 388.528C191.149 385.533 192.748 382.83 195.093 380.877C198.577 378.018 203.498 376.965 207.256 374.666C207.655 374.41 208.12 374.273 208.594 374.272C209.069 374.271 209.534 374.405 209.935 374.66C210.335 374.914 210.655 375.278 210.856 375.707C211.056 376.137 211.13 376.615 211.067 377.085L211.052 377.186C210.492 377.414 209.946 377.676 209.419 377.972C209.117 378.142 208.821 378.323 208.532 378.514C208.169 378.757 207.888 379.103 207.725 379.508C207.562 379.913 207.526 380.358 207.62 380.784C207.714 381.21 207.936 381.598 208.254 381.896C208.573 382.195 208.975 382.39 209.406 382.457L209.451 382.464C209.483 382.468 209.51 382.473 209.542 382.477C208.584 384.761 207.241 386.863 205.57 388.691C203.94 397.487 196.938 398.322 189.447 395.76H189.443C188.621 399.329 187.43 402.802 185.89 406.125H173.197C173.152 405.984 173.111 405.838 173.07 405.697C174.245 405.771 175.424 405.701 176.582 405.488C175.64 404.334 174.699 403.17 173.757 402.015C173.736 401.994 173.716 401.971 173.698 401.947C173.22 401.356 172.738 400.77 172.26 400.179L172.26 400.178C172.234 398.367 172.442 396.559 172.879 394.801L172.879 394.801Z" fill="#F2F2F2"/>
<path d="M30.9168 406.162C30.9164 406.273 30.9379 406.382 30.9799 406.483C31.0219 406.585 31.0836 406.678 31.1615 406.755C31.2394 406.833 31.332 406.895 31.4338 406.937C31.5357 406.979 31.6448 407 31.755 407H210.16C210.382 407 210.595 406.912 210.752 406.755C210.909 406.598 210.998 406.385 210.998 406.162C210.998 405.94 210.909 405.727 210.752 405.57C210.595 405.413 210.382 405.325 210.16 405.325H31.755C31.6448 405.325 31.5357 405.346 31.4338 405.388C31.332 405.43 31.2394 405.492 31.1615 405.57C31.0836 405.647 31.0219 405.74 30.9799 405.842C30.9379 405.943 30.9164 406.052 30.9168 406.162Z" fill="#CCCCCC"/>
</g>
<defs>
<clipPath id="clip0_422_2421">
<rect width="251" height="407" fill="white"/>
</clipPath>
</defs>
</svg>
