<svg width="114" height="38" viewBox="0 0 114 38" fill="none" xmlns="http://www.w3.org/2000/svg">
<path d="M47.7153 5.67288C41.8941 -0.79521 31.0061 -0.256203 26.2898 0.821811L34.3749 32.3537C43.2685 33.1622 48.9281 26.2899 50.1409 24.2686C51.3536 22.2473 54.9919 13.758 47.7153 5.67288Z" fill="#71D3FF"/>
<path d="M40.4388 16.1835C40.7622 22.3282 36.8005 27.0984 34.7792 28.7154L42.0558 37.2048C39.3607 37.3395 31.1409 37.5282 19.8217 37.2048C5.6728 36.8005 0.417492 27.0984 0.0132367 17.8005C-0.391019 8.50266 8.5026 0.417548 21.4388 0.0132923C34.3749 -0.390963 40.0345 8.50266 40.4388 16.1835Z" fill="#0369A1"/>
<circle cx="11.3324" cy="17.7872" r="3.23404" fill="white"/>
<circle cx="20.226" cy="17.7872" r="3.23404" fill="white"/>
<circle cx="29.1196" cy="17.7872" r="3.23404" fill="white"/>
<path d="M69.1894 26.4344C72.3523 26.4344 74.6226 24.882 74.6226 21.9132C74.6226 18.8279 72.0224 18.1488 70.0043 17.6443C68.7431 17.3144 67.7146 17.0621 67.7146 16.286C67.7146 15.6456 68.355 15.3546 69.0147 15.3546C69.7909 15.3546 70.4312 15.762 70.4312 16.6352H74.1957C74.1957 13.8604 72.3135 12.1917 69.0535 12.1917C65.8518 12.1917 63.892 13.7246 63.892 16.4024C63.892 19.4877 66.3952 20.0892 68.355 20.5743C69.6551 20.8848 70.7223 21.137 70.7223 21.9908C70.7223 22.7282 69.9655 23.1551 69.1894 23.1551C68.3356 23.1551 67.5788 22.67 67.5788 21.6998H63.7174C63.7174 24.6686 65.8712 26.4344 69.1894 26.4344ZM87.1947 20.7489C87.1947 17.6831 84.8662 15.2769 81.4898 15.2769C78.1911 15.2769 75.8044 17.6443 75.8044 20.846C75.8044 24.0477 78.2105 26.4344 81.4898 26.4344C84.1094 26.4344 86.2439 24.9403 86.9812 22.5535H83.3721C83.0422 23.1745 82.3242 23.5432 81.4898 23.5432C80.345 23.5432 79.5882 22.9222 79.3554 21.7192H87.1365C87.1753 21.3893 87.1947 21.0788 87.1947 20.7489ZM81.4898 18.11C82.5765 18.11 83.3332 18.6727 83.6437 19.7205H79.4136C79.7047 18.6727 80.442 18.11 81.4898 18.11ZM95.1541 15.6068L93.1942 21.8162L91.215 15.6068H87.2565L91.5255 26.0851H94.7854L98.9961 15.6068H95.1541ZM100.188 14.3067H103.758V11.2409H100.188V14.3067ZM100.169 26.0851H103.778V15.6068H100.169V26.0851ZM111.728 22.9416C110.972 22.9416 110.506 22.4759 110.506 21.7386V18.401H113.048V15.6068H110.428V12.5603H109.671L104.976 17.5472V18.401H106.897V22.3401C106.897 24.6686 108.313 26.0851 110.622 26.0851H113.106V22.9416H111.728Z" fill="#0369A1"/>
</svg>
